<?xml version="1.0" encoding="utf-8"?>
<!-- Generator: Adobe Illustrator 21.1.0, SVG Export Plug-In . SVG Version: 6.00 Build 0)  -->
<svg version="1.1" id="Layer_1" xmlns="http://www.w3.org/2000/svg" xmlns:xlink="http://www.w3.org/1999/xlink" x="0px" y="0px"
	 viewBox="0 0 24 24" style="enable-background:new 0 0 24 24;" xml:space="preserve">
<style type="text/css">
	.st0{fill:none;}
</style>
<path class="st0" d="M0,0h24v24H0V0z"/>
<path d="M19.2,19.2h-3v-4.8c0-1.1,0-2.6-1.6-2.6s-1.8,1.2-1.8,2.5v4.8h-3V9.4h2.9v1.3l0,0c0.4-0.8,1.4-1.6,2.9-1.6
	c3.1,0,3.6,2,3.6,4.7V19.2L19.2,19.2z M6.3,8.1c-1,0-1.8-0.8-1.8-1.8s0.8-1.8,1.8-1.8s1.8,0.8,1.8,1.8S7.3,8.1,6.3,8.1L6.3,8.1z
	 M7.8,19.2h-3V9.4h3V19.2L7.8,19.2z M20.7,1.8H3.3c-0.8,0-1.5,0.7-1.5,1.5v17.5c0,0.8,0.7,1.5,1.5,1.5h17.5c0.8,0,1.5-0.7,1.5-1.5
	V3.2C22.2,2.4,21.6,1.8,20.7,1.8L20.7,1.8z"/>
</svg>
