<?xml version="1.0" encoding="utf-8"?>
<!-- Generator: Adobe Illustrator 21.1.0, SVG Export Plug-In . SVG Version: 6.00 Build 0)  -->
<svg version="1.1" id="Layer_1" xmlns="http://www.w3.org/2000/svg" xmlns:xlink="http://www.w3.org/1999/xlink" x="0px" y="0px"
	 viewBox="0 0 128 128" style="enable-background:new 0 0 128 128;" xml:space="preserve">
<path d="M64,126.6c-2,0-3.9-0.8-5.4-2.3l-55-55.1c-1.5-1.5-2.3-3.4-2.3-5.4s0.8-3.9,2.3-5.4L41,21l13.7,13.7
	c-1.5,3.8-0.7,8,2.1,10.8c1.1,1,1.9,1.6,2.8,2v34.1c-1,0.5-1.9,1.2-2.8,2.1c-3.9,3.9-3.8,10.4,0.3,14.4c1.9,1.9,4.5,3,7.2,3
	s5.3-1.1,7.2-3c4-4,4-10.4,0-14.4C70.8,83.1,70,82.5,69,82V49.2l12,11.9c-1.4,3.8-0.5,7.9,2.3,10.7c1.9,1.9,4.5,3,7.2,3
	s5.3-1.1,7.2-3c4-4,4-10.4,0-14.4c-1.9-1.9-4.5-3-7.2-3c-1,0-2.1,0.2-3,0.5L74,41.4c1.1-3.6,0.2-7.5-2.5-10.2
	c-1.9-1.9-4.4-2.9-7.1-2.9c-1,0-2,0.1-3,0.4l-14-14l11-11c1.5-1.5,3.4-2.3,5.4-2.3s3.9,0.8,5.4,2.3l55.1,55.1
	c1.5,1.5,2.3,3.4,2.3,5.4c0,2-0.8,3.9-2.2,5.2l-54.9,54.9C68,125.8,66.1,126.6,64,126.6z"/>
</svg>
