<?xml version="1.0" encoding="utf-8"?>
<!-- Generator: Adobe Illustrator 21.1.0, SVG Export Plug-In . SVG Version: 6.00 Build 0)  -->
<svg version="1.1" id="Layer_1" xmlns="http://www.w3.org/2000/svg" xmlns:xlink="http://www.w3.org/1999/xlink" x="0px" y="0px"
	 viewBox="0 0 128 128" style="enable-background:new 0 0 128 128;" xml:space="preserve">
<g>
	<path d="M99.3,67.2c2.7-1.5,5.5-3.1,7.8-5.1c4.2-3.7,3.7-8.9-0.6-12.4c-0.7-0.6-1.7-1.2-1.9-1.9c-0.9-3.4-1.6-6.8,0.5-10.1
		c0.8-1.3,1.5-2.7,1.9-4.2c1.2-4.1-0.8-7.5-4.9-8.7c-0.7-0.2-1.5-0.2-2.2-0.5c-0.4-0.2-1-0.5-1.1-0.9c-0.8-4.1-0.3-5.8,3-7.7
		c1.5-0.9,3.3-1.3,5-1.9c0.6-0.2,1.3-0.3,2.1-0.5c-3.8-5.4-10.6-7.6-17.4-6C86.2,8.7,82.4,12.1,79,16c-0.4,0.5-1.1,0.9-1.7,0.9
		c-1.6,0-1.9-1.2-1.7-2.4c0.5-2.4,1.2-4.8,1.9-7.3c-3-0.1-5.3,1.8-7.9,3.7c-0.3-1.6-0.7-3-0.8-4.4c-0.1-1.4,0.1-2.9,0.2-4.4
		c-4.6,1.7-8.2,4.3-9.2,9.5h-0.6l-1.4-6.5c-0.6,0.4-1.2,0.6-1.6,1.1c-2.8,2.5-4.5,5.6-4.9,9.4c0,0.5-0.4,1.3-0.6,1.3
		c-0.5,0-1.1-0.3-1.5-0.6c-0.8-0.7-1.4-1.6-2.1-2.3c-4.3-4.6-9.4-7.5-16-7.1C26.2,7.2,22,9,19.2,13.1c2.4,0.9,4.9,1.6,7,2.7
		c2.8,1.4,3.4,3.5,3.1,6.5c-0.2,1.7-1,2-2.4,2.3c-5,0.8-7.4,4.6-5.9,9.4c0.3,1,0.6,2.1,1.3,2.8c2.3,2.8,1.8,6,1.5,9.2
		c-0.1,1.5-0.9,2.6-2.1,3.5c-5,3.9-5.2,9.3-0.2,13.3c2,1.6,4.4,3,6.7,4.2c3.2,1.6,4.5,4.3,4.4,7.7c0,2.8-0.1,5.5-0.3,8.3
		c-0.1,2-0.4,3.9-0.6,5.9L31.3,89c-1.1-1.6-2.5-3-3.4-4.7s-1.5-3.5-2.2-5.3c-7.4,6.1-7.6,23.6,4.2,29c1.7,0.8,2.7,1.8,3.6,3.3
		c3.2,5.3,7.8,8.6,14,9.6c0.6,0.1,1.3,0.4,1.8,0.7c8.2,5.5,21.1,5.5,29.2,0c0.5-0.3,1.1-0.7,1.6-0.7c6.8-1.1,11.7-4.9,15-10.8
		c0.3-0.5,0.8-1.1,1.3-1.4c7-2.9,10.4-8.3,10.9-15.7c0.3-5.5-1.1-10.3-5.3-14.4c-0.9,4.2-2.7,7.6-6.3,10.2
		c-0.2-5.2-0.5-10.3-0.5-15.5C95.4,70.7,96.8,68.7,99.3,67.2z M32.1,15.8c3.1,0,7.2,3.5,7,6.4c-0.1,1.1-1.5,2.5-2.6,2.9
		s-2.7-0.1-3.1-1.9c-0.2-0.8-0.3-1.7-0.4-2.5C32.7,19.1,32.4,17.5,32.1,15.8z M39.9,107.1c-1.7-0.3-3.4-0.4-4.9-0.9
		c-6.9-1.9-10.7-6.8-10.9-13.9c0-2,0.4-4.1,0.7-6.1c0,0,0.3-0.1,0.4-0.1c0,0,0,0.2,0.1,0.3c3.5,7.4,10.1,9.4,17.4,10.1l-3.4,6.3
		L39.9,107.1z M39,51.8v-4.6c3,2.3,7.2,4.5,9.9,7.6c0.2,0.3,0.5,0.5,0.7,0.8c0.1,0.2,0.2,0.4,0.3,0.6C46.4,58.9,39,57.2,39,51.8z
		 M58.4,106.1c-0.7,1-1.5,2.1-2.2,3.1c-1.9,2.4-4.5,2.5-6.7,0.4c-0.7-0.7-1.4-1.4-2.1-2l0,0l-0.4-0.4c-0.8-3.9-0.7-4,3.5-4.1
		c2,0,3.9,0,5.9,0C58.6,103.3,59,104,58.4,106.1z M81,106.9l-0.4,0.7l0,0l0,0l0,0c-0.5,0.6-1,1.2-1.6,1.7c-2.5,2.5-5.2,2.4-7.4-0.5
		c-0.7-0.9-1.3-1.9-2-2.8c-0.6-2.1-0.1-2.8,2.1-2.9c2.3-0.1,4.6,0,6.8,0C81.6,103.2,82.1,104,81,106.9z M78,56.2l1.1-1.3
		c2.7-3.1,5.9-5.3,9.9-7.6v4.6C89,57.1,81.7,59,78,56.2z M102.4,87l0.5-1.1c1.5,5,1.7,9.9-1.2,14.3c-3.1,4.8-8,6.4-13.5,6.8l0.5-4.1
		l-3.3-6.3C92.3,95.8,98.9,94.2,102.4,87z M94.7,22.7c-0.2,1.1-0.5,1.9-1.9,2.4c-2,0.7-2.7-0.8-3.5-1.8c-0.4-0.5-0.2-1.7,0.1-2.4
		c1-2.4,2.5-4.2,5.1-4.9c0.5-0.1,1-0.2,1.3-0.2C95.4,18.2,95.1,20.4,94.7,22.7z"/>
</g>
</svg>
