<?xml version="1.0" encoding="utf-8"?>
<!-- Generator: Adobe Illustrator 21.1.0, SVG Export Plug-In . SVG Version: 6.00 Build 0)  -->
<svg version="1.1" id="Layer_1" xmlns="http://www.w3.org/2000/svg" xmlns:xlink="http://www.w3.org/1999/xlink" x="0px" y="0px"
	 viewBox="0 0 128 128" style="enable-background:new 0 0 128 128;" xml:space="preserve">
<g>
	<path d="M1.4,1.4v125.2h125.2V1.4H1.4z M67.4,108.5c-1.8,3.7-5.3,6.2-9.4,7.4c-6.2,1.4-12.2,0.6-16.7-2.1c-3-1.8-5.3-4.7-6.9-7.9
		l9.5-5.8c0.1,0.1,0.4,0.5,0.7,1.1c1.2,2,2.2,3.5,4.3,4.5c2,0.7,6.5,1.2,8.2-2.4c1-1.8,0.7-7.7,0.7-14.1V58.9h11.7
		c0,10.8,0,21.5,0,32.2C69.5,97.6,70.1,103.6,67.4,108.5z M116,105.2c-4,13.9-26.7,14.4-35.8,5.2c-2-2.2-3.2-3.3-4.3-5.8
		c4.8-2.8,4.8-2.8,9.5-5.5c2.5,3.9,4.9,6,9.1,6.9c5.7,0.7,11.5-1.3,10.2-7.4c-1.4-5-11.8-6.2-18.9-11.5c-7.2-4.8-8.9-16.6-3-23.3
		c2-2.5,5.4-4.3,8.9-5.2l3.7-0.5c7.1-0.1,11.6,1.8,14.8,5.4c0.9,0.9,1.6,1.9,3,4c-3.8,2.4-3.8,2.4-9.2,5.9c-1.2-2.5-3.1-4-5.1-4.7
		c-3.1-1-7.1,0.1-7.9,3.4c-0.3,1.1-0.3,2,0.2,3.7c1.3,2.9,5.6,4.1,9.4,5.9c11.1,4.5,14.8,9.3,15.7,15
		C117.2,101.7,116.1,104.8,116,105.2z"/>
</g>
</svg>
